<svg width="31" height="33" viewBox="0 0 31 33" fill="none" xmlns="http://www.w3.org/2000/svg">
<path d="M11.0156 9.02344C13.0078 9.02344 14.6484 10.5469 14.6484 12.4219C14.6484 14.2969 13.0078 15.8203 11.0156 15.8203C9.02344 15.8203 7.44141 14.2969 7.44141 12.4219C7.44141 10.5469 9.02344 9.02344 11.0156 9.02344ZM19.4531 9.02344C21.4453 9.02344 23.0273 10.5469 23.0273 12.4219C23.0273 14.2969 21.4453 15.8203 19.4531 15.8203C17.4609 15.8203 15.8203 14.2969 15.8203 12.4219C15.8203 10.5469 17.4609 9.02344 19.4531 9.02344ZM28.5938 14.2969C29.4727 13.7109 30.0586 14.5312 29.5312 15.3516C28.4766 16.6992 26.4258 18.2812 23.3203 19.5703C26.6016 30.8203 15.293 32.5781 15.4688 26.8359C15.4688 26.7773 15.4102 23.6719 15.4102 21.3281C15.1758 21.3281 14.9414 21.2109 14.6484 21.1523C14.6484 23.4961 14.5898 26.7773 14.5898 26.8359C14.8242 32.5781 3.45703 30.8203 6.73828 19.5703C3.63281 18.2812 1.58203 16.6406 0.527344 15.3516C0 14.5312 0.585938 13.7109 1.46484 14.2969C1.58203 14.4141 1.69922 14.4727 1.81641 14.5312V2.92969C1.81641 1.34766 3.04688 0 4.51172 0H25.5469C27.0703 0 28.2422 1.34766 28.2422 2.92969V14.5312L28.5938 14.2969ZM26.8359 15.4102V4.27734C26.8359 2.34375 26.1914 1.58203 24.4336 1.58203H5.80078C3.98438 1.58203 3.45703 2.22656 3.45703 4.27734V15.5273C7.38281 17.6367 10.7812 17.2266 12.6562 17.168C13.418 17.168 13.9453 17.2852 14.2383 17.6367C14.3555 17.6953 14.8242 18.1641 15.4102 18.6328C15.5273 17.6953 15.9961 17.1094 17.4023 17.168C19.2773 17.2266 22.793 17.6367 26.8359 15.4102Z" fill="#F48C06"/>
</svg>
