<svg width="34" height="20" viewBox="0 0 34 20" fill="none" xmlns="http://www.w3.org/2000/svg">
<path d="M24.6094 14.2383C25.3711 14.2383 26.0156 13.6523 26.0156 12.832C26.0156 12.0703 25.3711 11.4258 24.6094 11.4258C23.8477 11.4258 23.2031 12.0703 23.2031 12.832C23.2031 13.6523 23.8477 14.2383 24.6094 14.2383ZM9.08203 14.2383C9.84375 14.2383 10.4883 13.6523 10.4883 12.832C10.4883 12.0703 9.84375 11.4258 9.08203 11.4258C8.32031 11.4258 7.67578 12.0703 7.67578 12.832C7.67578 13.6523 8.32031 14.2383 9.08203 14.2383ZM25.1367 5.80078C29.9414 8.4375 33.2227 13.3008 33.75 19.043H0C0.46875 13.3008 3.75 8.4375 8.55469 5.80078L5.74219 0.9375C5.68359 0.820312 5.68359 0.703125 5.68359 0.585938C5.68359 0.292969 5.91797 0 6.26953 0C6.50391 0 6.67969 0.175781 6.79688 0.351562L9.60938 5.27344C11.8359 4.27734 14.2969 3.75 16.875 3.75C19.4531 3.75 21.8555 4.27734 24.082 5.27344L26.8945 0.351562C27.0117 0.175781 27.1875 0 27.4219 0C27.7734 0 28.0078 0.292969 28.0078 0.585938C28.0078 0.703125 28.0078 0.820312 27.9492 0.9375L25.1367 5.80078Z" fill="white"/>
</svg>
