<svg width="27" height="30" viewBox="0 0 27 30" fill="none" xmlns="http://www.w3.org/2000/svg">
<path d="M26.25 4.33594V6.97266C26.25 9.375 20.332 11.25 13.125 11.25C5.85938 11.25 0 9.375 0 6.97266V4.33594C0 1.93359 5.85938 0 13.125 0C20.332 0 26.25 1.93359 26.25 4.33594ZM26.25 10.3125V16.3477C26.25 18.75 20.332 20.625 13.125 20.625C5.85938 20.625 0 18.75 0 16.3477V10.3125C2.8125 12.3047 7.96875 13.1836 13.125 13.1836C18.2227 13.1836 23.3789 12.3047 26.25 10.3125ZM26.25 19.6875V25.7227C26.25 28.125 20.332 30 13.125 30C5.85938 30 0 28.125 0 25.7227V19.6875C2.8125 21.6797 7.96875 22.5586 13.125 22.5586C18.2227 22.5586 23.3789 21.6797 26.25 19.6875Z" fill="#9DCCFF"/>
</svg>
