<svg width="24" height="24" viewBox="0 0 24 24" fill="none" xmlns="http://www.w3.org/2000/svg">
<g clip-path="url(#clip0_201_54888)">
<path d="M22.1847 2.20944L22.0784 2.01308L21.8821 1.90682C19.5398 0.639178 16.6296 0.289022 13.6875 0.92085C10.6946 1.56365 7.88497 3.13105 5.5624 5.45366C3.23984 7.77627 1.67239 10.5859 1.02959 13.5787C0.397904 16.5208 0.748013 19.431 2.01561 21.7734L2.12187 21.9697L2.31823 22.076C3.89895 22.9315 5.73781 23.3691 7.67108 23.3691C8.62647 23.3672 9.57899 23.2642 10.5127 23.0619C13.5056 22.4192 16.3152 20.8517 18.6378 18.5291C20.9603 16.2065 22.5281 13.3968 23.1707 10.4039C23.8025 7.46188 23.4524 4.55151 22.1847 2.20944ZM20.9697 3.12182C21.8969 4.94329 22.181 7.05027 21.8791 9.19331L14.8982 2.21244C17.0413 1.91057 19.1484 2.19463 20.9697 3.12182ZM3.2307 20.8609C2.28373 19.0005 2.00764 16.8424 2.34153 14.6521L9.43939 21.75C7.24915 22.0839 5.09098 21.8078 3.2307 20.8609ZM17.5772 17.4683C15.6819 19.3637 13.447 20.6835 11.1712 21.3606L2.73097 12.9203C3.40812 10.6446 4.72784 8.40965 6.62318 6.51431C8.55237 4.58512 10.8334 3.2526 13.1512 2.58679L21.5048 10.9406C20.839 13.2582 19.5064 15.539 17.5772 17.4683Z" fill="black"/>
<path d="M16.2803 8.78032L15.2197 7.71973L14.25 8.68938L12.9053 7.34473L11.8447 8.40532L13.1893 9.75002L12 10.9394L10.6553 9.59473L9.59467 10.6553L10.9393 12L9.74997 13.1894L8.40526 11.8447L7.34467 12.9053L8.68932 14.25L7.71967 15.2197L8.78026 16.2803L9.74997 15.3107L11.0947 16.6553L12.1553 15.5947L10.8106 14.25L12 13.0607L13.3447 14.4053L14.4053 13.3447L13.0606 12L14.25 10.8107L15.5947 12.1553L16.6553 11.0947L15.3106 9.75002L16.2803 8.78032Z" fill="black"/>
</g>
<defs>
<clipPath id="clip0_201_54888">
<rect width="24" height="24" fill="white"/>
</clipPath>
</defs>
</svg>
