<svg width="28" height="29" viewBox="0 0 28 29" fill="none" xmlns="http://www.w3.org/2000/svg">
<g clip-path="url(#clip0_201_84037)">
<path d="M1.2349 9.07767L9.49662 17.3511C11.149 18.9917 12.9068 18.9917 14.5122 17.3863L16.0708 15.8277C17.6763 14.2222 17.6763 12.4644 16.0357 10.8238L7.77396 2.55033C6.12162 0.909704 4.36381 0.909704 2.75834 2.51517L1.19974 4.07377C-0.405726 5.67923 -0.405726 7.43705 1.2349 9.07767ZM2.28959 7.85892C1.43412 7.00345 1.44584 6.11283 2.28959 5.25736L3.94193 3.5933C4.77396 2.74955 5.68802 2.76127 6.54349 3.60502L14.981 12.0425C15.8365 12.898 15.8247 13.7886 14.981 14.6441L13.3404 16.3081C12.4966 17.1519 11.5826 17.1402 10.7271 16.2964L2.28959 7.85892ZM8.1724 11.5503C8.34818 11.7261 8.62943 11.7261 8.79349 11.5503C8.95756 11.3863 8.96927 11.1167 8.79349 10.9409L4.41068 6.55814C4.25834 6.41752 3.96537 6.39408 3.78959 6.55814C3.62552 6.74564 3.61381 7.02689 3.78959 7.19095L8.1724 11.5503ZM9.61381 10.1206C9.77787 10.2964 10.0826 10.273 10.2349 10.1206C10.4107 9.92142 10.4107 9.65189 10.2466 9.48783L5.86381 5.11673C5.68802 4.94095 5.40677 4.95267 5.25443 5.11673C5.07865 5.29252 5.09037 5.56205 5.25443 5.72611L9.61381 10.1206ZM24.6958 28.0972L26.7935 25.9995C27.0396 25.7417 27.0044 25.3667 26.7701 25.0034L24.3208 21.3472C24.0747 20.9839 23.6997 20.7261 23.2779 20.6675L22.2232 20.5034L16.481 14.7613L15.4029 16.0152L21.5435 22.1441L22.856 22.3667L25.0943 25.3433L24.0279 26.4097L21.063 24.1714L20.8286 22.8589L14.7349 16.7652L13.6451 17.9956L19.188 23.5386L19.3521 24.5933C19.4107 25.0152 19.6802 25.3902 20.0318 25.6245L23.6997 28.1089C24.0747 28.355 24.438 28.355 24.6958 28.0972Z" fill="black" fill-opacity="0.85"/>
<path d="M1.83257 26.7146C3.87163 28.7302 6.6021 28.7536 8.606 26.738C11.1255 24.195 10.7271 21.3357 18.4146 13.531C20.9224 14.7146 23.9576 14.3161 25.9732 12.3122C28.0826 10.2029 28.4458 6.87471 26.8755 4.17939L23.688 7.36689C23.3716 7.6833 22.9732 7.70674 22.6333 7.36689L21.2036 5.92549C20.8638 5.57393 20.8286 5.16377 21.1451 4.84736L24.3443 1.67158C21.6724 0.112988 18.356 0.46455 16.2466 2.58564C14.231 4.60127 13.8208 7.62471 15.0044 10.1325C7.21147 17.82 4.3521 17.4216 1.80913 19.9294C-0.218212 21.9333 -0.194775 24.6755 1.83257 26.7146Z" fill="white"/>
<path d="M1.83257 26.7146C3.87163 28.7302 6.6021 28.7536 8.606 26.738C11.1255 24.195 10.7271 21.3357 18.4146 13.531C20.9224 14.7146 23.9576 14.3161 25.9732 12.3122C28.0826 10.2029 28.4458 6.87471 26.8755 4.17939L23.688 7.36689C23.3716 7.6833 22.9732 7.70674 22.6333 7.36689L21.2036 5.92549C20.8638 5.57393 20.8286 5.16377 21.1451 4.84736L24.3443 1.67158C21.6724 0.112988 18.356 0.46455 16.2466 2.58564C14.231 4.60127 13.8208 7.62471 15.0044 10.1325C7.21147 17.82 4.3521 17.4216 1.80913 19.9294C-0.218212 21.9333 -0.194775 24.6755 1.83257 26.7146ZM17.5122 11.0349C15.4263 8.94893 15.3443 5.64424 17.3365 3.67549C18.4615 2.53877 20.0669 2.08174 21.6021 2.32783L19.9029 4.02705C19.0357 4.88252 19.0591 5.98408 19.9615 6.86299L21.6958 8.58564C22.563 9.45283 23.6763 9.47627 24.4966 8.64424L26.2193 6.90986C26.4771 8.46846 26.0083 10.074 24.8716 11.2224C22.8911 13.2029 19.6099 13.1091 17.5122 11.0349ZM2.99272 25.5544C1.64507 24.1833 1.6685 22.4372 2.95757 21.1365C5.7935 18.324 7.481 19.5193 15.7896 11.3982C15.9771 11.656 16.188 11.8904 16.4107 12.1247C16.6333 12.3474 16.8794 12.57 17.1372 12.7575C9.02788 21.0661 10.2232 22.7536 7.41069 25.5661C6.10991 26.8786 4.3521 26.8904 2.99272 25.5544ZM5.17241 24.8513C5.96928 24.8513 6.62553 24.195 6.62553 23.3982C6.62553 22.6013 5.96928 21.9568 5.17241 21.9568C4.37553 21.9568 3.731 22.6013 3.731 23.3982C3.731 24.195 4.37553 24.8513 5.17241 24.8513Z" fill="black" fill-opacity="0.85"/>
</g>
<defs>
<clipPath id="clip0_201_84037">
<rect width="27.8449" height="28.292" fill="white"/>
</clipPath>
</defs>
</svg>
