<svg width="31" height="30" viewBox="0 0 31 30" fill="none" xmlns="http://www.w3.org/2000/svg">
<path d="M9.84375 18.1641L15 22.4414C15 22.6172 15.0586 22.793 15.0586 22.9688C15.0586 27.4805 11.9531 30 7.55859 30C2.22656 30 0.0585938 25.7812 0 20.9766C0.585938 21.3281 2.63672 22.9688 3.28125 22.9688C3.63281 22.9688 3.98438 22.7344 4.10156 22.3828C5.33203 19.2188 7.44141 18.2812 9.84375 18.1641ZM26.8359 0C28.5352 0 30.0586 1.23047 30.0586 2.92969C30.0586 3.86719 29.6484 4.80469 29.2383 5.625C22.6172 17.9883 20.5078 20.625 16.8164 20.625C16.4062 20.625 15.9375 20.5664 15.5273 20.4492L11.7773 17.3438C11.4844 16.6406 11.3086 15.8789 11.3086 15.1172C11.3086 11.9531 12.5391 11.7188 24.4922 0.996094C25.1367 0.410156 25.957 0 26.8359 0Z" fill="#49BBBD"/>
</svg>
