<svg width="34" height="30" viewBox="0 0 34 30" fill="none" xmlns="http://www.w3.org/2000/svg">
<path d="M30.9375 0C32.4609 0 33.75 1.28906 33.75 2.8125V21.5625C33.75 23.1445 32.4609 24.375 30.9375 24.375H19.6875L20.625 27.1875H24.8438C25.6055 27.1875 26.25 27.832 26.25 28.5938C26.25 29.4141 25.6055 30 24.8438 30H8.90625C8.08594 30 7.5 29.4141 7.5 28.5938C7.5 27.832 8.08594 27.1875 8.90625 27.1875H13.125L14.0625 24.375H2.8125C1.23047 24.375 0 23.1445 0 21.5625V2.8125C0 1.28906 1.23047 0 2.8125 0H30.9375ZM30 20.625V3.75H3.75V20.625H30Z" fill="#5B72EE"/>
</svg>
