<svg width="20" height="20" viewBox="0 0 20 20" fill="none" xmlns="http://www.w3.org/2000/svg">
<path d="M14.1797 8.98438C14.8438 9.375 14.8438 10.2734 14.1797 10.625L7.30469 14.5703C6.67969 14.9219 5.9375 14.4922 5.9375 13.75V5.625C5.9375 4.92188 6.67969 4.49219 7.30469 4.80469L14.1797 8.98438ZM19.375 9.6875C19.375 15.0391 15.0391 19.375 9.6875 19.375C4.33594 19.375 0 15.0391 0 9.6875C0 4.33594 4.33594 0 9.6875 0C15.0391 0 19.375 4.33594 19.375 9.6875ZM1.875 9.6875C1.875 14.0234 5.35156 17.5 9.6875 17.5C13.9844 17.5 17.5 14.0234 17.5 9.6875C17.5 5.39062 13.9844 1.875 9.6875 1.875C5.35156 1.875 1.875 5.39062 1.875 9.6875Z" fill="#2D3436" fill-opacity="0.8"/>
</svg>
