<svg width="27" height="30" viewBox="0 0 27 30" fill="none" xmlns="http://www.w3.org/2000/svg">
<path d="M26.25 21.0938C26.25 21.5625 26.0156 21.9727 25.7227 22.207C25.4297 23.0859 25.4297 25.6641 25.7227 26.6016C26.0156 26.8359 26.25 27.2461 26.25 27.6562V28.5938C26.25 29.4141 25.6055 30 24.8438 30H5.625C2.51953 30 0 27.4805 0 24.375V5.625C0 2.51953 2.51953 0 5.625 0H24.8438C25.6055 0 26.25 0.644531 26.25 1.40625V21.0938ZM7.5 7.85156V9.02344C7.5 9.25781 7.61719 9.375 7.85156 9.375H20.2734C20.4492 9.375 20.625 9.25781 20.625 9.02344V7.85156C20.625 7.67578 20.4492 7.5 20.2734 7.5H7.85156C7.61719 7.5 7.5 7.67578 7.5 7.85156ZM7.5 11.6016V12.7734C7.5 13.0078 7.61719 13.125 7.85156 13.125H20.2734C20.4492 13.125 20.625 13.0078 20.625 12.7734V11.6016C20.625 11.4258 20.4492 11.25 20.2734 11.25H7.85156C7.61719 11.25 7.5 11.4258 7.5 11.6016ZM22.3242 26.25C22.207 25.2539 22.207 23.5547 22.3242 22.5H5.625C4.57031 22.5 3.75 23.3789 3.75 24.375C3.75 25.4297 4.57031 26.25 5.625 26.25H22.3242Z" fill="#EE645B"/>
</svg>
