<svg width="27" height="30" viewBox="0 0 27 30" fill="none" xmlns="http://www.w3.org/2000/svg">
<path d="M20.625 7.55859C22.1484 7.85156 23.4375 8.67188 24.375 10.0195C25.2539 11.25 25.8398 12.7734 26.1328 14.5898C26.4258 16.2891 26.4258 17.9883 26.0742 19.6289C25.6055 22.4414 24.668 24.7266 23.2617 26.6016C21.6211 28.8867 19.5117 30 16.9336 30C16.3477 30 15.6445 29.8242 14.8828 29.4141C14.4141 29.1211 13.8281 28.9453 13.1836 28.9453C12.5977 28.9453 12.0117 29.1211 11.543 29.4141C10.7812 29.8242 10.0781 30 9.49219 30C6.91406 30 4.80469 28.8867 3.16406 26.6016C1.75781 24.7266 0.820312 22.4414 0.351562 19.6289C0 17.9883 0 16.2891 0.292969 14.5898C0.585938 12.7734 1.17188 11.25 2.05078 10.0195C2.98828 8.67188 4.27734 7.85156 5.80078 7.55859C6.73828 7.44141 8.02734 7.55859 9.66797 7.96875C11.0742 8.37891 12.2461 8.84766 13.1836 9.375C14.1797 8.84766 15.3516 8.37891 16.7578 7.96875C18.3984 7.55859 19.6875 7.44141 20.625 7.55859ZM17.4023 5.15625C16.875 5.68359 16.1719 6.03516 15.2344 6.26953C14.6484 6.50391 13.9453 6.5625 13.1836 6.5625L12.3633 6.50391C12.2461 5.97656 12.2461 5.33203 12.3633 4.62891C12.4805 3.22266 12.9492 2.16797 13.6523 1.40625C14.2383 0.9375 14.9414 0.527344 15.8203 0.292969C16.4648 0.117188 17.168 0 17.8711 0L18.75 0.0585938L18.8086 0.9375C18.8086 1.69922 18.75 2.40234 18.5156 2.98828C18.2812 3.92578 17.9297 4.62891 17.4023 5.15625Z" fill="white"/>
</svg>
