<svg width="30" height="27" viewBox="0 0 30 27" fill="none" xmlns="http://www.w3.org/2000/svg">
<path d="M18.75 17.8125V15H30V23.4375C30 24.9609 28.6523 26.25 27.1875 26.25H2.8125C1.28906 26.25 0 24.9609 0 23.4375V15H11.25V17.8125C11.25 18.3398 11.6602 18.75 12.1875 18.75H17.8125C18.2812 18.75 18.75 18.3398 18.75 17.8125ZM27.1875 5.625C28.6523 5.625 30 6.97266 30 8.4375V13.125H0V8.4375C0 6.97266 1.28906 5.625 2.8125 5.625H7.5V2.8125C7.5 1.34766 8.78906 0 10.3125 0H19.6875C21.1523 0 22.5 1.34766 22.5 2.8125V5.625H27.1875ZM18.75 5.625V3.75H11.25V5.625H18.75Z" fill="#00CBB8"/>
</svg>
