<svg width="21" height="21" viewBox="0 0 21 21" fill="none" xmlns="http://www.w3.org/2000/svg">
<path d="M18.1641 10.2344L19.9609 8.47656C20.5078 7.96875 20.2344 7.07031 19.5312 6.91406L17.1094 6.28906L17.7734 3.86719C17.9688 3.16406 17.3438 2.5 16.6406 2.69531L14.2188 3.39844L13.5938 0.9375C13.4375 0.273438 12.5 0 11.9922 0.546875L10.2734 2.34375L8.51562 0.546875C8.00781 0 7.07031 0.234375 6.91406 0.9375L6.28906 3.39844L3.86719 2.69531C3.16406 2.5 2.53906 3.16406 2.73438 3.86719L3.39844 6.28906L0.976562 6.91406C0.273438 7.07031 0 7.96875 0.546875 8.47656L2.34375 10.2344L0.546875 11.9922C0 12.5 0.273438 13.3984 0.976562 13.5938L3.39844 14.2188L2.73438 16.6406C2.53906 17.3438 3.16406 17.9688 3.86719 17.7734L6.28906 17.1094L6.91406 19.5312C7.10938 20.2734 8.00781 20.4688 8.51562 19.9609L10.2734 18.1641L11.9922 19.9609C12.5 20.5078 13.3984 20.2734 13.5938 19.5312L14.2188 17.1094L16.6406 17.7734C17.3438 17.9688 17.9688 17.3438 17.7734 16.6406L17.1094 14.2188L19.5312 13.5938C20.2344 13.3984 20.5078 12.5 19.9609 11.9922L18.1641 10.2344Z" fill="#49BBBD"/>
</svg>
