<svg width="30" height="23" viewBox="0 0 30 23" fill="none" xmlns="http://www.w3.org/2000/svg">
<path d="M28.5938 0C29.3555 0 30 0.644531 30 1.40625V21.0938C30 21.9141 29.3555 22.5 28.5938 22.5H28.125V21.3281C28.125 20.9766 27.7734 20.625 27.4219 20.625H25.0781C24.668 20.625 24.375 20.9766 24.375 21.3281V22.5H5.625V21.3281C5.625 20.9766 5.27344 20.625 4.92188 20.625H2.57812C2.16797 20.625 1.875 20.9766 1.875 21.3281V22.5H1.40625C0.585938 22.5 0 21.9141 0 21.0938V1.40625C0 0.644531 0.585938 0 1.40625 0H1.875V1.17188C1.875 1.58203 2.16797 1.875 2.57812 1.875H4.92188C5.27344 1.875 5.625 1.58203 5.625 1.17188V0H24.375V1.17188C24.375 1.58203 24.668 1.875 25.0781 1.875H27.4219C27.7734 1.875 28.125 1.58203 28.125 1.17188V0H28.5938ZM5.625 18.0469V15.7031C5.625 15.3516 5.27344 15 4.92188 15H2.57812C2.16797 15 1.875 15.3516 1.875 15.7031V18.0469C1.875 18.457 2.16797 18.75 2.57812 18.75H4.92188C5.27344 18.75 5.625 18.457 5.625 18.0469ZM5.625 12.4219V10.0781C5.625 9.72656 5.27344 9.375 4.92188 9.375H2.57812C2.16797 9.375 1.875 9.72656 1.875 10.0781V12.4219C1.875 12.832 2.16797 13.125 2.57812 13.125H4.92188C5.27344 13.125 5.625 12.832 5.625 12.4219ZM5.625 6.79688V4.45312C5.625 4.10156 5.27344 3.75 4.92188 3.75H2.57812C2.16797 3.75 1.875 4.10156 1.875 4.45312V6.79688C1.875 7.20703 2.16797 7.5 2.57812 7.5H4.92188C5.27344 7.5 5.625 7.20703 5.625 6.79688ZM21.5625 18.9844V13.3594C21.5625 13.0078 21.2109 12.6562 20.8594 12.6562H9.14062C8.73047 12.6562 8.4375 13.0078 8.4375 13.3594V18.9844C8.4375 19.3945 8.73047 19.6875 9.14062 19.6875H20.8594C21.2109 19.6875 21.5625 19.3945 21.5625 18.9844ZM21.5625 9.14062V3.51562C21.5625 3.16406 21.2109 2.8125 20.8594 2.8125H9.14062C8.73047 2.8125 8.4375 3.16406 8.4375 3.51562V9.14062C8.4375 9.55078 8.73047 9.84375 9.14062 9.84375H20.8594C21.2109 9.84375 21.5625 9.55078 21.5625 9.14062ZM28.125 18.0469V15.7031C28.125 15.3516 27.7734 15 27.4219 15H25.0781C24.668 15 24.375 15.3516 24.375 15.7031V18.0469C24.375 18.457 24.668 18.75 25.0781 18.75H27.4219C27.7734 18.75 28.125 18.457 28.125 18.0469ZM28.125 12.4219V10.0781C28.125 9.72656 27.7734 9.375 27.4219 9.375H25.0781C24.668 9.375 24.375 9.72656 24.375 10.0781V12.4219C24.375 12.832 24.668 13.125 25.0781 13.125H27.4219C27.7734 13.125 28.125 12.832 28.125 12.4219ZM28.125 6.79688V4.45312C28.125 4.10156 27.7734 3.75 27.4219 3.75H25.0781C24.668 3.75 24.375 4.10156 24.375 4.45312V6.79688C24.375 7.20703 24.668 7.5 25.0781 7.5H27.4219C27.7734 7.5 28.125 7.20703 28.125 6.79688Z" fill="#252641"/>
</svg>
